Patient4_TMGait_0pt4_01_left_43_GRF.mot
version=1
nRows=78
nColumns=19
inDegrees=no
endheader
time	F1x	F1y	F1z	M1x	M1y	M1z	F2x	F2y	F2z	M2x	M2y	M2z	EC1x	EC1y	EC1z	EC2x	EC2y	EC2z
54.1	9.1656	7.4996	10.0866	-2.4519	-7.0216	1.6513	-51.3987	750.5023	-82.2349	275.3344	109.4363	863.202	-0.0592	0.0182	-0.0073	-0.0462	0.0165	0.9585
54.1134	6.1238	5.7458	6.9368	-1.919	-4.8856	1.8682	-47.4625	754.6367	-79.7448	275.5065	106.0062	863.4138	-0.0592	0.0182	-0.0073	-0.0462	0.0165	0.9585
54.1267	3.5688	4.295	4.2474	-1.4726	-3.0584	2.1007	-43.6293	758.1979	-77.19	275.6766	102.3349	862.6086	-0.0592	0.0182	-0.0073	-0.0462	0.0165	0.9585
54.1401	1.6292	3.2318	2.1723	-1.1408	-1.6423	2.3394	-40.0007	761.2027	-74.5937	275.9788	98.4564	860.9153	-0.0592	0.0182	-0.0073	-0.0462	0.0165	0.9585
54.1534	0.28891	2.5331	0.71549	-0.9177	-0.64063	2.5643	-36.4979	763.9006	-71.9346	276.5615	94.3396	858.6183	-0.0592	0.0182	-0.0073	-0.0462	0.0165	0.9585
54.1668	-0.54312	2.1268	-0.20909	-0.78178	0.0012828	2.7564	-32.9658	766.5728	-69.1722	277.5293	89.9285	855.9839	-0.0592	0.0182	-0.0073	-0.0462	0.0165	0.9585
54.1801	-0.9978	1.9248	-0.71502	-0.70567	0.35023	2.9065	-29.2096	769.3678	-66.3057	278.8995	85.1967	853.114	-0.0592	0.0182	-0.0073	-0.0462	0.0165	0.9585
54.1935	-1.1866	1.821	-0.91906	-0.65617	0.48012	2.9684	-25.0609	772.2516	-63.3632	280.5937	80.1527	849.9432	-0.0592	0.0182	-0.0073	-0.0462	0.0165	0.9585
54.2069	-1.2306	1.7123	-0.92779	-0.5999	0.45577	2.8876	-20.4089	774.9221	-60.4099	282.4227	74.8526	846.1665	-0.0592	0.0182	-0.0073	-0.0462	0.0165	0.9585
54.2202	-1.2229	1.4853	-0.82203	-0.50298	0.33296	2.5766	-15.2441	776.8043	-57.5374	284.0946	69.4036	841.25	-0.0592	0.0182	-0.0073	-0.0462	0.0165	0.9585
54.2336	-1.2264	1.0314	-0.66552	-0.33155	0.15915	1.9547	-9.6464	777.1672	-54.8563	285.262	63.9595	834.5554	-0.0592	0.0182	-0.0073	-0.0462	0.0165	0.9585
54.2469	-1.2743	0.24953	-0.50631	-0.053481	-0.024388	0.93176	-3.7449	775.3304	-52.4809	285.6048	58.6975	825.5269	-0.0592	0.0182	-0.0073	-0.0462	0.0165	0.9585
54.2603	-1.3524	-0.91467	-0.37289	0.3496	-0.18622	-0.54057	2.2639	770.9	-50.5041	284.9214	53.7972	813.9246	-0.0592	0.0182	-0.0073	-0.0462	0.0165	0.9585
54.2736	-1.424	-2.4486	-0.28992	0.87493	-0.2894	-2.4297	8.1928	763.8948	-49.0034	283.1784	49.4171	799.9136	-0.0592	0.0182	-0.0073	-0.0462	0.0165	0.9585
54.287	-1.4042	-4.2389	-0.26879	1.4842	-0.29133	-4.6059	13.8886	754.8391	-48.0345	280.5437	45.6814	784.1589	-0.0592	0.0182	-0.0073	-0.0462	0.0165	0.9585
54.3004	-1.1834	-5.9944	-0.32075	2.0777	-0.13679	-6.737	19.2311	744.7048	-47.6438	277.3662	42.6906	767.7434	-0.0592	0.0182	-0.0073	-0.0462	0.0165	0.9585
54.3137	-0.61396	-7.2046	-0.46362	2.48	0.2476	-8.2309	24.1404	734.7271	-47.8568	274.1074	40.5019	751.9792	-0.0592	0.0182	-0.0073	-0.0462	0.0165	0.9585
54.3271	0.47726	-7.0983	-0.73473	2.4244	0.96283	-8.1806	28.5634	726.1589	-48.6799	271.2413	39.1324	738.1847	-0.0592	0.0182	-0.0073	-0.0462	0.0165	0.9585
54.3404	2.2501	-4.5837	-1.1647	1.5344	2.0974	-5.2943	32.4598	719.9477	-50.0717	269.1297	38.5481	727.3491	-0.0592	0.0182	-0.0073	-0.0462	0.0165	0.9585
54.3538	4.8309	1.7456	-1.7616	-0.67392	3.6976	2.0913	35.742	716.4823	-51.9459	267.9206	38.6868	719.9041	-0.0592	0.0182	-0.0073	-0.0462	0.0165	0.9585
54.3671	8.2271	13.5252	-2.4871	-4.76	5.7175	15.9182	38.2994	715.4052	-54.16	267.478	39.4456	715.5283	-0.0592	0.0182	-0.0073	-0.0462	0.0165	0.9585
54.3805	12.255	32.3804	-3.2401	-11.2748	7.9656	38.1104	39.9887	715.5382	-56.5032	267.3556	40.6737	713.0815	-0.0592	0.0182	-0.0073	-0.0462	0.0165	0.9585
54.3939	16.3903	59.4667	-3.8262	-20.605	10.0236	70.0537	40.6458	714.9556	-58.6881	266.8346	42.1557	710.6843	-0.0592	0.0182	-0.0073	-0.0462	0.0165	0.9585
54.4072	19.6361	94.7559	-3.9389	-32.7258	11.1791	111.7483	40.16	711.2945	-60.3986	265.0467	43.6371	706.0098	-0.0592	0.0182	-0.0073	-0.0462	0.0165	0.9585
54.4206	20.5137	136.1891	-3.1498	-46.9073	10.4276	160.7922	38.5007	702.2734	-61.3264	261.1685	44.848	696.7935	-0.0592	0.0182	-0.0073	-0.0462	0.0165	0.9585
54.4339	17.9104	179.3976	-0.96379	-61.6156	6.8252	212.0567	35.7769	686.2389	-61.2348	254.6317	45.5361	681.3261	-0.0592	0.0182	-0.0073	-0.0462	0.0165	0.9585
54.4473	12.696	219.4876	3.1087	-75.1414	0.16371	259.7003	32.2747	662.7193	-60.034	245.3199	45.5191	658.9786	-0.0592	0.0182	-0.0073	-0.0462	0.0165	0.9585
54.4606	6.4472	254.3572	8.4568	-86.7877	-8.283	300.9952	28.4746	632.6118	-57.8229	233.6189	44.7239	630.393	-0.0592	0.0182	-0.0073	-0.0462	0.0165	0.9585
54.474	0.31715	284.9793	14.4542	-96.9241	-17.3623	336.8825	24.9215	597.5773	-54.8695	220.1846	43.2076	596.9315	-0.0592	0.0182	-0.0073	-0.0462	0.0165	0.9585
54.4874	-5.1203	313.5549	20.4315	-106.3555	-26.1011	369.9158	22.0406	559.2586	-51.3947	205.656	41.0138	559.9905	-0.0592	0.0182	-0.0073	-0.0462	0.0165	0.9585
54.5007	-9.6592	342.0236	26.0194	-115.782	-33.9837	402.391	20.0592	518.7902	-47.476	190.4728	38.1219	520.5538	-0.0592	0.0182	-0.0073	-0.0462	0.0165	0.9585
54.5141	-13.2809	371.4889	30.8499	-125.6041	-40.6024	435.5975	18.9429	476.7812	-43.0535	174.8635	34.4697	479.1987	-0.0592	0.0182	-0.0073	-0.0462	0.0165	0.9585
54.5274	-15.9567	402.2007	34.8712	-135.9038	-45.8957	469.8518	18.4928	433.4336	-38.0968	158.893	30.0846	436.1575	-0.0592	0.0182	-0.0073	-0.0462	0.0165	0.9585
54.5408	-17.6258	433.9866	38.1097	-146.6044	-49.9116	504.9555	18.3714	388.8408	-32.6781	142.5667	25.1382	391.6086	-0.0592	0.0182	-0.0073	-0.0462	0.0165	0.9585
54.5541	-18.3242	466.5413	40.8891	-157.5608	-53.0399	540.6383	18.1998	343.1481	-27.0294	125.9005	19.9681	345.792	-0.0592	0.0182	-0.0073	-0.0462	0.0165	0.9585
54.5675	-18.1206	499.4971	43.4509	-168.6242	-55.61	576.5222	17.5958	296.7605	-21.4554	109.0039	14.9826	299.2003	-0.0592	0.0182	-0.0073	-0.0462	0.0165	0.9585
54.5809	-17.2918	532.5453	46.1321	-179.6723	-58.0993	612.3569	16.2569	250.4785	-16.2873	92.133	10.59	252.713	-0.0592	0.0182	-0.0073	-0.0462	0.0165	0.9585
54.5942	-16.1734	565.5108	49.045	-190.6569	-60.7666	647.9818	14.0879	205.5156	-11.796	75.7069	7.0839	207.5743	-0.0592	0.0182	-0.0073	-0.0462	0.0165	0.9585
54.6076	-15.0545	598.4917	52.2843	-201.6268	-63.804	683.5278	11.1754	163.3991	-8.1721	60.2724	4.6219	165.3294	-0.0592	0.0182	-0.0073	-0.0462	0.0165	0.9585
54.6209	-14.0829	631.6142	55.6556	-212.6521	-67.0526	719.1119	7.8391	125.6283	-5.4698	46.3845	3.156	127.4434	-0.0592	0.0182	-0.0073	-0.0462	0.0165	0.9585
54.6343	-13.3199	664.5902	59.0273	-223.6536	-70.3732	754.3772	4.4771	93.3293	-3.6258	34.4692	2.5	95.0137	-0.0592	0.0182	-0.0073	-0.0462	0.0165	0.9585
54.6476	-12.8238	696.5854	62.1718	-234.361	-73.5293	788.3476	1.4298	66.98	-2.4656	24.7218	2.384	68.4976	-0.0592	0.0182	-0.0073	-0.0462	0.0165	0.9585
54.661	-12.5654	726.3498	65.0398	-244.3533	-76.434	819.5931	-1.1126	46.4161	-1.7926	17.103	2.5646	47.7366	-0.0592	0.0182	-0.0073	-0.0462	0.0165	0.9585
54.6744	-12.464	752.5311	67.4801	-253.1794	-78.8896	846.5832	-3.0729	31.0331	-1.4243	11.4011	2.8412	32.156	-0.0592	0.0182	-0.0073	-0.0462	0.0165	0.9585
54.6877	-12.3822	773.9363	69.4451	-260.4397	-80.7837	867.9801	-4.3686	19.9277	-1.2166	7.2901	3.0474	20.8575	-0.0592	0.0182	-0.0073	-0.0462	0.0165	0.9585
54.7011	-12.1866	789.8014	70.8068	-265.8816	-81.9396	882.9316	-4.9843	12.1442	-1.0521	4.4171	3.0611	12.9063	-0.0592	0.0182	-0.0073	-0.0462	0.0165	0.9585
54.7144	-11.7932	799.8854	71.5478	-269.4257	-82.306	891.2142	-4.9076	6.8127	-0.8693	2.4598	2.8186	7.4259	-0.0592	0.0182	-0.0073	-0.0462	0.0165	0.9585
54.7278	-11.1252	804.447	71.6323	-271.1591	-81.8258	893.1529	-4.2494	3.2903	-0.65451	1.1767	2.3443	3.774	-0.0592	0.0182	-0.0073	-0.0462	0.0165	0.9585
54.7411	-10.1552	804.1272	71.1477	-271.2864	-80.5806	889.5167	-3.3	1.1558	-0.44649	0.40925	1.7754	1.5376	-0.0592	0.0182	-0.0073	-0.0462	0.0165	0.9585
54.7545	-8.857	799.804	70.1711	-270.0857	-78.6565	881.3261	-2.3171	0.059785	-0.27869	0.026861	1.2363	0.3715	-0.0592	0.0182	-0.0073	-0.0462	0.0165	0.9585
54.7679	-7.2242	792.4924	68.8556	-267.8778	-76.2199	869.7607	-1.4612	-0.31303	-0.16353	-0.090582	0.79265	-0.028081	-0.0592	0.0182	-0.0073	-0.0462	0.0165	0.9585
54.7812	-5.2539	783.3006	67.3254	-265.013	-73.4138	856.0773	-0.77682	-0.25339	-0.098315	-0.049414	0.45971	0.028927	-0.0592	0.0182	-0.0073	-0.0462	0.0165	0.9585
54.7946	-2.9824	773.2836	65.7429	-261.8224	-70.4277	841.4732	-0.29685	0.047727	-0.068453	0.077161	0.23503	0.34737	-0.0592	0.0182	-0.0073	-0.0462	0.0165	0.9585
54.8079	-0.47956	763.337	64.2252	-258.5908	-67.4192	826.9673	0.014556	0.45295	-0.060987	0.23851	0.098501	0.77081	-0.0592	0.0182	-0.0073	-0.0462	0.0165	0.9585
54.8213	2.1666	754.1842	62.8704	-255.5522	-64.5284	813.3802	0.18713	0.87536	-0.063943	0.40323	0.028136	1.2091	-0.0592	0.0182	-0.0073	-0.0462	0.0165	0.9585
54.8346	4.8574	746.3571	61.7056	-252.8856	-61.8215	801.317	0.24886	1.2605	-0.072873	0.55332	0.0088814	1.6171	-0.0592	0.0182	-0.0073	-0.0462	0.0165	0.9585
54.848	7.4926	740.1708	60.7274	-250.7033	-59.3291	791.1421	0.24489	1.5768	-0.086362	0.67991	0.024684	1.9598	-0.0592	0.0182	-0.0073	-0.0462	0.0165	0.9585
54.8614	9.9941	735.759	59.9108	-249.0605	-57.0503	783.0031	0.18271	1.8286	-0.10435	0.78126	0.069733	2.2483	-0.0592	0.0182	-0.0073	-0.0462	0.0165	0.9585
54.8747	12.328	733.1444	59.2119	-247.9768	-54.9564	776.9126	0.0932	1.9854	-0.1227	0.84585	0.12846	2.4327	-0.0592	0.0182	-0.0073	-0.0462	0.0165	0.9585
54.8881	14.4895	732.272	58.5963	-247.4456	-53.0193	772.7892	-0.028465	2.0349	-0.14355	0.86425	0.20185	2.4966	-0.0592	0.0182	-0.0073	-0.0462	0.0165	0.9585
54.9014	16.511	733.0513	58.037	-247.4465	-51.2091	770.4869	-0.16516	1.9375	-0.16843	0.81894	0.28816	2.3811	-0.0592	0.0182	-0.0073	-0.0462	0.0165	0.9585
54.9148	18.4323	735.3866	57.5332	-247.9521	-49.5181	769.8628	-0.31546	1.6172	-0.19871	0.68079	0.38802	1.9907	-0.0592	0.0182	-0.0073	-0.0462	0.0165	0.9585
54.9281	20.3225	739.1398	57.0991	-248.9206	-47.9475	770.7324	-0.48483	0.98764	-0.23158	0.4165	0.49815	1.2297	-0.0592	0.0182	-0.0073	-0.0462	0.0165	0.9585
54.9415	22.249	744.1072	56.7676	-250.283	-46.5116	772.8588	-0.63309	-0.041746	-0.2635	-0.0088906	0.60149	-0.01757	-0.0592	0.0182	-0.0073	-0.0462	0.0165	0.9585
54.9549	24.2824	749.97	56.5811	-251.9225	-45.2281	775.8899	-0.74122	-1.5325	-0.28513	-0.62009	0.67683	-1.8178	-0.0592	0.0182	-0.0073	-0.0462	0.0165	0.9585
54.9682	26.4737	756.2148	56.5926	-253.6502	-44.1315	779.3	-0.74274	-3.5083	-0.28479	-1.4215	0.68228	-4.2085	-0.0592	0.0182	-0.0073	-0.0462	0.0165	0.9585
54.9816	28.8299	762.0951	56.8385	-255.1942	-43.2532	782.3639	-0.55308	-5.8483	-0.24655	-2.3644	0.55863	-7.0396	-0.0592	0.0182	-0.0073	-0.0462	0.0165	0.9585
54.9949	31.3282	766.6819	57.3525	-256.2173	-42.6352	784.195	-0.064919	-8.257	-0.13679	-3.3283	0.22064	-9.9495	-0.0592	0.0182	-0.0073	-0.0462	0.0165	0.9585
55.0083	33.8742	769.0546	58.1366	-256.3833	-42.3112	783.9478	0.84718	-10.17	0.083929	-4.0842	-0.42491	-12.2513	-0.0592	0.0182	-0.0073	-0.0462	0.0165	0.9585
55.0216	36.3803	768.4854	59.1795	-255.4285	-42.3069	780.9687	2.3045	-10.6394	0.45853	-4.2515	-1.471	-12.7965	-0.0592	0.0182	-0.0073	-0.0462	0.0165	0.9585
55.035	38.7443	764.6364	60.4318	-253.2318	-42.6142	774.9971	4.4072	-8.3126	1.0218	-3.2814	-2.988	-9.9602	-0.0592	0.0182	-0.0073	-0.0462	0.0165	0.9585
55.0484	40.8786	757.5921	61.8203	-249.8278	-43.2013	766.1811	7.1422	-1.4028	1.7933	-0.45003	-4.9809	-1.5775	-0.0592	0.0182	-0.0073	-0.0462	0.0165	0.9585
55.0617	42.7246	747.6594	63.2137	-245.3455	-43.972	754.8635	10.3498	12.2117	2.744	5.101	-7.3328	14.9188	-0.0592	0.0182	-0.0073	-0.0462	0.0165	0.9585
55.0751	44.2365	735.1188	64.4372	-239.9236	-44.7802	741.3441	13.597	34.7324	3.7761	14.2582	-9.7356	42.1943	-0.0592	0.0182	-0.0073	-0.0462	0.0165	0.9585
55.0884	45.3911	719.9332	65.2244	-233.6158	-45.3779	725.5625	16.0532	67.9055	4.6843	27.7212	-11.595	82.3625	-0.0592	0.0182	-0.0073	-0.0462	0.0165	0.9585
55.1018	46.1354	701.534	65.2624	-226.3152	-45.4687	706.919	16.4148	112.2083	5.1259	45.6698	-11.9676	135.994	-0.0592	0.0182	-0.0073	-0.0462	0.0165	0.9585
55.1151	46.4437	678.8157	64.2062	-217.747	-44.711	684.2264	13.053	165.8576	4.6039	67.3572	-9.6222	200.9276	-0.0592	0.0182	-0.0073	-0.0462	0.0165	0.9585
55.1285	46.2722	650.4297	61.8077	-207.5497	-42.8517	656.0289	5.4246	224.5595	2.4485	90.9842	-3.5756	272.003	-0.0592	0.0182	-0.0073	-0.0462	0.0165	0.9585
